Coordinates
version=1
nRows=49
nColumns=12
inDegrees=yes

Units are S.I. units (second, meters, Newtons, ...)
Angles are in degrees

endheader
time	SC_y	SC_z	SC_x	AC_y	AC_z	AC_x	GH_y	GH_z	GH_yy	EL_x	PS_y
       0.0              -20.59          32.85          63.55          53.87          4.306         -6.278          150.9          15.49         -42.37          138.6          151.5
   0.01907               -20.6          32.85          63.55          53.87          4.304         -6.275          150.9          15.49         -42.35          138.6          151.5
   0.03815               -20.6          32.85          63.55          53.87          4.303         -6.272          150.9           15.5         -42.33          138.6          151.5
   0.05722              -20.61          32.84          63.55          53.86          4.301         -6.269          150.8           15.5         -42.31          138.6          151.5
    0.0763              -20.62          32.84          63.55          53.86            4.3         -6.266          150.8          15.51         -42.29          138.6          151.5
   0.09537              -20.62          32.84          63.56          53.86          4.298         -6.263          150.7          15.52         -42.26          138.6          151.5
    0.1144              -20.63          32.84          63.56          53.85          4.296         -6.259          150.7          15.52         -42.24          138.6          151.5
    0.1335              -20.64          32.84          63.56          53.85          4.294         -6.255          150.6          15.53         -42.21          138.6          151.5
    0.1526              -20.64          32.84          63.56          53.84          4.292         -6.251          150.6          15.54         -42.18          138.5          151.5
    0.1717              -20.65          32.84          63.56          53.84           4.29         -6.246          150.5          15.55         -42.15          138.5          151.5
    0.1907              -20.66          32.84          63.57          53.83          4.287         -6.241          150.4          15.56         -42.11          138.5          151.5
    0.2098              -20.67          32.84          63.57          53.83          4.285         -6.236          150.4          15.57         -42.08          138.5          151.5
    0.2289              -20.68          32.83          63.57          53.82          4.282         -6.231          150.3          15.58         -42.04          138.5          151.5
     0.248              -20.69          32.83          63.58          53.81          4.279         -6.225          150.2          15.59          -42.0          138.5          151.5
     0.267              -20.71          32.83          63.58          53.81          4.276         -6.218          150.1           15.6         -41.95          138.5          151.5
    0.2861              -20.72          32.83          63.58           53.8          4.272         -6.211          150.0          15.62          -41.9          138.5          151.5
    0.3052              -20.74          32.83          63.59          53.79          4.268         -6.203          149.9          15.63         -41.85          138.5          151.5
    0.3243              -20.75          32.83          63.59          53.78          4.264         -6.195          149.8          15.65         -41.79          138.5          151.5
    0.3433              -20.77          32.82           63.6          53.77          4.259         -6.186          149.7          15.66         -41.72          138.5          151.5
    0.3624              -20.79          32.82          63.61          53.76          4.254         -6.176          149.5          15.68         -41.65          138.5          151.5
    0.3815              -20.81          32.82          63.61          53.75          4.249         -6.165          149.4          15.71         -41.57          138.5          151.5
    0.4006              -20.83          32.81          63.62          53.74          4.242         -6.153          149.2          15.73         -41.49          138.4          151.5
    0.4196              -20.86          32.81          63.63          53.72          4.236         -6.139          149.0          15.75          -41.4          138.4          151.5
    0.4387              -20.89          32.81          63.63          53.71          4.228         -6.125          148.8          15.78         -41.29          138.4          151.5
    0.4578              -20.92           32.8          63.64          53.69           4.22         -6.108          148.6          15.81         -41.17          138.4          151.5
    0.4769              -20.96           32.8          63.65          53.67          4.211          -6.09          148.4          15.85         -41.05          138.4          151.5
    0.4959               -21.0          32.79          63.67          53.65            4.2         -6.069          148.1          15.89          -40.9          138.3          151.5
     0.515              -21.04          32.79          63.68          53.62          4.188         -6.046          147.8          15.93         -40.74          138.3          151.5
    0.5341              -21.09          32.78          63.69          53.59          4.175          -6.02          147.4          15.98         -40.55          138.3          151.5
    0.5532              -21.15          32.77          63.71          53.56           4.16          -5.99          147.0          16.04         -40.34          138.3          151.5
    0.5722              -21.21          32.76          63.73          53.52          4.143         -5.956          146.5          16.11          -40.1          138.2          151.5
    0.5913              -21.29          32.75          63.75          53.48          4.123         -5.917          146.0          16.18         -39.83          138.2          151.5
    0.6104              -21.37          32.74          63.78          53.43            4.1         -5.872          145.4          16.27         -39.51          138.1          151.5
    0.6295              -21.48          32.73          63.81          53.38          4.074          -5.82          144.6          16.37         -39.15          138.1          151.5
    0.6485              -21.59          32.71          63.84          53.31          4.043         -5.759          143.8          16.49         -38.72          138.0          151.5
    0.6676              -21.73          32.69          63.89          53.23          4.006         -5.687          142.8          16.63         -38.21          137.9          151.5
    0.6867               -21.9          32.67          63.94          53.14          3.963         -5.601          141.6          16.79         -37.61          137.8          151.5
    0.7058               -22.1          32.64          63.99          53.03          3.911         -5.499          140.2          16.99         -36.88          137.7          151.5
    0.7248              -22.34          32.61          64.07          52.89          3.848         -5.374          138.5          17.23         -36.01          137.6          151.4
    0.7439              -22.63          32.57          64.15          52.73          3.771         -5.223          136.4          17.52         -34.94          137.4          151.4
     0.763              -22.99          32.52          64.26          52.52          3.676         -5.036          133.9          17.88         -33.62          137.2          151.4
    0.7821              -23.44          32.46          64.39          52.27          3.558         -4.802          130.7          18.33         -31.98          137.0          151.4
    0.8011              -24.01          32.38          64.56          51.95          3.409         -4.508          126.6          18.89         -29.91          136.6          151.4
    0.8202              -24.73          32.29          64.78          51.55          3.219         -4.134          121.5          19.61         -27.27          136.2          151.3
    0.8393              -25.65          32.16          65.05          51.03          2.977         -3.656          114.9          20.54          -23.9          135.7          151.3
    0.8584              -26.83           32.0          65.41          50.36          2.666         -3.042          106.4          21.72         -19.58          135.1          151.2
    0.8774              -28.35           31.8          65.86          49.51          2.268         -2.257          95.66          23.23         -14.06          134.2          151.2
    0.8965              -30.25          31.54          66.43          48.44          1.768         -1.271           82.1          25.13          -7.11          133.1          151.1
    0.9156              -32.57          31.22          67.12          47.14          1.159       -0.06949          65.57          27.44          1.354          131.8          151.0
